<?xml version="1.0" encoding="UTF-8"?>
<svg version="1.1" xmlns="http://www.w3.org/2000/svg" width="500" height="500">
<path d="M0 0 C0.99 0.4640625 0.99 0.4640625 2 0.9375 C4.15125838 2.08035601 5.47069513 3.10657492 7 5 C7.165 5.70125 7.33 6.4025 7.5 7.125 C7.665 7.74375 7.83 8.3625 8 9 C9.485 9.495 9.485 9.495 11 10 C14.70041541 14.98379647 16.42913081 19.83461277 17 26 C17.32355469 26.97839844 17.64710937 27.95679688 17.98046875 28.96484375 C19.52075518 34.17960659 19.46411881 39.53792509 19.625 44.9375 C19.66367188 46.00291016 19.70234375 47.06832031 19.7421875 48.16601562 C19.83586146 50.77717734 19.92158335 53.38834304 20 56 C19.01 56.495 19.01 56.495 18 57 C17.47049784 58.95253921 16.94888816 60.90806724 16.4921875 62.87890625 C15.23034834 68.31683215 13.41924486 72.54462033 10 77 C8.515 77.495 8.515 77.495 7 78 C6.7834375 78.8971875 6.7834375 78.8971875 6.5625 79.8125 C5.79011783 82.81620844 4.36237051 84.04260729 2 86 C0.66893378 86.34227417 -0.66400079 86.67751743 -2 87 C-2.495 88.485 -2.495 88.485 -3 90 C-3.71542969 90.11472656 -4.43085937 90.22945313 -5.16796875 90.34765625 C-9.07397887 91.24738548 -12.40152922 92.99198874 -15.98828125 94.74609375 C-28.3759576 99.9036088 -43.54801633 99.83275099 -56.0859375 95.24609375 C-57.52839844 94.62927734 -57.52839844 94.62927734 -59 94 C-59.94101562 93.59910156 -60.88203125 93.19820313 -61.8515625 92.78515625 C-68.76610093 89.4252749 -73.52347962 84.85479884 -78.6875 79.29296875 C-80.85934342 76.80054305 -80.85934342 76.80054305 -84 76 C-86.67071489 72.40480688 -87.36246319 69.37168097 -88 65 C-88.62225605 63.31624835 -89.27544365 61.64232772 -90 60 C-90.66 60 -91.32 60 -92 60 C-92.6090063 32.10751161 -92.6090063 32.10751161 -89 21 C-88.65718543 19.66907286 -88.32015262 18.33655946 -88 17 C-87.34 17 -86.68 17 -86 17 C-85.896875 16.236875 -85.79375 15.47375 -85.6875 14.6875 C-84.94177197 11.77238133 -84.25289461 10.89243147 -82 9 C-79.95166298 7.17067673 -79.95166298 7.17067673 -79.0625 5.0625 C-77.92851731 2.86123948 -76.92303751 1.55322261 -75 0 C-74.401875 -0.1340625 -73.80375 -0.268125 -73.1875 -0.40625 C-70.544754 -1.12356677 -68.67618571 -2.33209551 -66.375 -3.8125 C-44.58455048 -17.20220015 -20.74932194 -13.83288129 0 0 Z M-46.1875 13.875 C-46.93708984 14.33519531 -47.68667969 14.79539063 -48.45898438 15.26953125 C-49.16732422 15.71425781 -49.87566406 16.15898437 -50.60546875 16.6171875 C-51.25668701 17.02565918 -51.90790527 17.43413086 -52.57885742 17.85498047 C-53.04783447 18.23283691 -53.51681152 18.61069336 -54 19 C-54 19.66 -54 20.32 -54 21 C-54.70511719 21.09152344 -55.41023438 21.18304688 -56.13671875 21.27734375 C-59.5550178 22.14007953 -61.87947955 23.61893223 -64.8125 25.5625 C-65.78832031 26.20316406 -66.76414062 26.84382813 -67.76953125 27.50390625 C-68.50558594 27.99761719 -69.24164063 28.49132812 -70 29 C-64.85467475 33.30938838 -59.19335131 36.50086324 -53.36181641 39.76538086 C-51.49754393 40.81388134 -49.64556759 41.88221401 -47.79296875 42.95117188 C-46.60226752 43.62104639 -45.41088356 44.28970911 -44.21875 44.95703125 C-43.14560547 45.56522705 -42.07246094 46.17342285 -40.96679688 46.80004883 C-37.58303161 48.16864711 -36.3947976 48.20668161 -33 47 C-31.03979699 46.0596184 -29.11420325 45.0453492 -27.21875 43.98046875 C-26.12949219 43.37009766 -25.04023437 42.75972656 -23.91796875 42.13085938 C-22.79003906 41.48955078 -21.66210938 40.84824219 -20.5 40.1875 C-19.37207031 39.55779297 -18.24414062 38.92808594 -17.08203125 38.27929688 C-12.07596316 35.45634842 -7.42196754 32.69355439 -3 29 C-11.39453174 23.50296881 -19.8056493 18.03433141 -28.375 12.8125 C-28.99834229 12.42650635 -29.62168457 12.0405127 -30.26391602 11.64282227 C-37.17728813 7.47484643 -39.97513723 9.93598221 -46.1875 13.875 Z M12 15 C13 17 13 17 13 17 Z M-61 51 C-61 54.63 -61 58.26 -61 62 C-60.67 62 -60.34 62 -60 62 C-60 58.37 -60 54.74 -60 51 C-60.33 51 -60.66 51 -61 51 Z M-59 52 C-60.12297595 56.68273633 -60.44608226 60.36642656 -59 65 C-52.3103245 71.66087616 -42.35130317 76 -33 76 C-30.88550391 75.1507142 -30.88550391 75.1507142 -28.77734375 73.91796875 C-27.59881836 73.26151367 -27.59881836 73.26151367 -26.39648438 72.59179688 C-25.17928711 71.89666992 -25.17928711 71.89666992 -23.9375 71.1875 C-22.71450195 70.50977539 -22.71450195 70.50977539 -21.46679688 69.81835938 C-17.89322473 67.80694038 -14.80480373 66.03152124 -12 63 C-12.66 63 -13.32 63 -14 63 C-14 59.37 -14 55.74 -14 52 C-17.7071751 50.64685377 -17.7071751 50.64685377 -19.93530273 51.8203125 C-20.59473877 52.25085938 -21.2541748 52.68140625 -21.93359375 53.125 C-22.66513672 53.58390625 -23.39667969 54.0428125 -24.15039062 54.515625 C-25.67238274 55.50342518 -27.19322237 56.49300343 -28.71289062 57.484375 C-34.28327607 60.9726023 -34.28327607 60.9726023 -37.5546875 61.09765625 C-41.12208218 59.49631774 -44.38734313 57.52770605 -47.6875 55.4375 C-53.00141707 51.40650905 -53.00141707 51.40650905 -59 52 Z M-13 51 C-13 54.63 -13 58.26 -13 62 C-12.67 62 -12.34 62 -12 62 C-12 58.37 -12 54.74 -12 51 C-12.33 51 -12.66 51 -13 51 Z M12 69 C13 71 13 71 13 71 Z " fill="#0076B6" transform="translate(92,207)"/>
<path d="M0 0 C13 0 13 0 16 1 C17.62573242 3.31665039 17.62573242 3.31665039 19.35546875 6.34765625 C19.97744141 7.42724609 20.59941406 8.50683594 21.24023438 9.61914062 C21.88283203 10.75544922 22.52542969 11.89175781 23.1875 13.0625 C23.84169922 14.20267578 24.49589844 15.34285156 25.16992188 16.51757812 C26.78804103 19.34042832 28.3950653 22.16963299 30 25 C30.33 16.75 30.66 8.5 31 0 C31.33 0 31.66 0 32 0 C32 10.56 32 21.12 32 32 C32.33 21.44 32.66 10.88 33 0 C37.29 0 41.58 0 46 0 C46 18.81 46 37.62 46 57 C33 57 33 57 29 55 C27.76953125 53.4140625 27.76953125 53.4140625 26.8125 51.625 C26.47992188 51.00367188 26.14734375 50.38234375 25.8046875 49.7421875 C24.93611741 47.86169108 24.50090552 46.00362208 24 44 C23.01 43.01 22.02 42.02 21 41 C19.35 38.36 17.7 35.72 16 33 C15.67 40.59 15.34 48.18 15 56 C10.51793698 58.24103151 5.01109879 57 0 57 C0 38.19 0 19.38 0 0 Z M21 13 C22 15 22 15 22 15 Z M18 32 C19 34 19 34 19 34 Z M28 49 C29 51 29 51 29 51 Z " fill="#0075B6" transform="translate(236,228)"/>
<path d="M0 0 C31.33333333 0 31.33333333 0 42 8 C42.556875 8.4125 43.11375 8.825 43.6875 9.25 C47.85916397 14.81221863 46.21374132 25.30685935 45.6875 31.9375 C44.96056657 35.175658 44.54351607 36.02170972 42 38 C39.72855926 39.85432087 39.72855926 39.85432087 38 42 C38.30157451 45.4178445 39.58798024 47.58798024 42 50 C43.24193548 54.51612903 43.24193548 54.51612903 42 57 C39.89590361 57.02701408 37.79170822 57.04640223 35.6875 57.0625 C34.51574219 57.07410156 33.34398437 57.08570313 32.13671875 57.09765625 C29 57 29 57 26 56 C25.608125 54.845 25.21625 53.69 24.8125 52.5 C23.46083979 48.9070366 23.46083979 48.9070366 21.03125 48.31640625 C18.55327385 47.99634776 18.55327385 47.99634776 15 48 C15 50.97 15 53.94 15 57 C10.05 57 5.1 57 0 57 C0 38.19 0 19.38 0 0 Z M13 13 C13 18.94 13 24.88 13 31 C13.33 31 13.66 31 14 31 C14 25.06 14 19.12 14 13 C13.67 13 13.34 13 13 13 Z M15 13 C15 18.94 15 24.88 15 31 C21.93 31.495 21.93 31.495 29 32 C31.2586663 28.61200055 31.22069533 27.45540692 31.125 23.5 C31.10695313 22.5409375 31.08890625 21.581875 31.0703125 20.59375 C31.04710937 19.7378125 31.02390625 18.881875 31 18 C31 17.01 31 16.02 31 15 C27.36804504 12.57869669 25.61650652 12.78977215 21.3125 12.875 C19.229375 12.91625 17.14625 12.9575 15 13 Z M32 20 C32 22.64 32 25.28 32 28 C32.33 28 32.66 28 33 28 C33.67801034 25.09926819 33.67801034 25.09926819 34 22 C33.34 21.34 32.68 20.68 32 20 Z M13 32 C13 32.33 13 32.66 13 33 C17.62 33 22.24 33 27 33 C27 32.67 27 32.34 27 32 C22.38 32 17.76 32 13 32 Z M13 46 C13 46.33 13 46.66 13 47 C16.63 47 20.26 47 24 47 C24 46.67 24 46.34 24 46 C20.37 46 16.74 46 13 46 Z M24 47 C25 49 25 49 25 49 Z M40 51 C41 53 41 53 41 53 Z M26 52 C27 54 27 54 27 54 Z " fill="#0076B4" transform="translate(406,228)"/>
<path d="M0 0 C0.99 0.33 1.98 0.66 3 1 C3.495 2.485 3.495 2.485 4 4 C4.99 4.33 5.98 4.66 7 5 C7.495 6.485 7.495 6.485 8 8 C8.99598667 9.00399729 9.99619535 10.00381918 11 11 C14.11004258 17.45045869 14.3521994 22.90383439 14 30 C13.34 30 12.68 30 12 30 C11.79503906 30.68707031 11.59007812 31.37414062 11.37890625 32.08203125 C11.10949219 32.98308594 10.84007812 33.88414062 10.5625 34.8125 C10.29566406 35.70582031 10.02882812 36.59914063 9.75390625 37.51953125 C8.10545848 42.94318065 8.10545848 42.94318065 6.13671875 44.00390625 C5.07904297 44.49697266 5.07904297 44.49697266 4 45 C2.91179851 45.9505215 1.84942975 46.9312941 0.8125 47.9375 C-5.38697661 53.32090963 -12.23260352 54.56574138 -20.3046875 54.2734375 C-28.47974032 53.44408432 -33.20792652 50.46321169 -39.0546875 44.7421875 C-40.97971161 42.78601728 -40.97971161 42.78601728 -44 42 C-47.87359963 36.55331882 -47.44757294 30.84407749 -47.375 24.4375 C-47.38660156 23.40947266 -47.39820313 22.38144531 -47.41015625 21.32226562 C-47.37348581 11.8918507 -47.37348581 11.8918507 -44 8 C-43.34 7.67 -42.68 7.34 -42 7 C-41.67 6.34 -41.34 5.68 -41 5 C-40 3 -40 3 -38 2 C-37.67 1.34 -37.34 0.68 -37 0 C-35.33524314 -0.34274406 -33.66804677 -0.67364302 -32 -1 C-30.576875 -1.7734375 -30.576875 -1.7734375 -29.125 -2.5625 C-19.72525483 -6.71731078 -8.79705706 -4.38093442 0 0 Z M-29.58984375 12.78125 C-31.19511653 15.30699776 -31.68483502 17.3113432 -32.1875 20.25 C-32.34605469 21.14203125 -32.50460938 22.0340625 -32.66796875 22.953125 C-32.77753906 23.62859375 -32.88710937 24.3040625 -33 25 C-33.33 25 -33.66 25 -34 25 C-34 26.98 -34 28.96 -34 31 C-33.01 31 -32.02 31 -31 31 C-30.71125 31.78375 -30.4225 32.5675 -30.125 33.375 C-29.15087746 36.09671632 -29.15087746 36.09671632 -27 38 C-26.32710937 38.77730469 -26.32710937 38.77730469 -25.640625 39.5703125 C-22.62164381 42.20113896 -18.87316481 42.12204002 -15 42 C-11.41327055 41.06110095 -8.64906121 39.64906121 -6 37 C-6 36.34 -6 35.68 -6 35 C-5.2575 34.0409375 -5.2575 34.0409375 -4.5 33.0625 C-1.79158139 27.532812 -2.5029426 21.485287 -3.6875 15.5625 C-5.81662337 11.4056401 -8.6269407 9.45768643 -13 8 C-19.38916976 7.36716795 -25.04230897 7.68622331 -29.58984375 12.78125 Z M-46 14 C-45 16 -45 16 -45 16 Z M10 14 C11 16 11 16 11 16 Z M11 16 C12 19 12 19 12 19 Z M-34 21 C-33 24 -33 24 -33 24 Z M-2 21 C-2 23.97 -2 26.94 -2 30 C-1.67 30 -1.34 30 -1 30 C-1 27.03 -1 24.06 -1 21 C-1.33 21 -1.66 21 -2 21 Z M-46 34 C-45 36 -45 36 -45 36 Z " fill="#0076B7" transform="translate(218,232)"/>
<path d="M0 0 C2.47111003 1.87560534 4.77482082 3.83974647 7 6 C7.81984375 6.73476562 7.81984375 6.73476562 8.65625 7.484375 C10.84490107 9.95296981 10.63643801 12.77987953 11 16 C11.33996492 17.50328237 11.69470607 19.00328304 12.0625 20.5 C13.72632604 28.08960647 13.11439218 32.99246126 9.41015625 39.84375 C7.5936094 42.62140613 6.01714577 43.62857011 3 45 C1.51187451 46.00772876 0.03357345 47.03003807 -1.4375 48.0625 C-8.77842227 52.91232242 -15.25642419 53.92384952 -24 53 C-27.50477304 51.97232105 -30.70697794 50.56375744 -34 49 C-34.85207031 48.69320312 -35.70414062 48.38640625 -36.58203125 48.0703125 C-40.45373331 46.35650577 -42.72001025 43.50711799 -45 40 C-45.875 36.5625 -45.875 36.5625 -46 34 C-46.66 34 -47.32 34 -48 34 C-49.16348868 30.50953395 -49.16834776 27.67722983 -49.1875 24 C-49.20167969 22.7625 -49.21585937 21.525 -49.23046875 20.25 C-49 17 -49 17 -47 14 C-46.835 13.319375 -46.67 12.63875 -46.5 11.9375 C-46 10 -46 10 -44 8 C-43.566875 7.01 -43.566875 7.01 -43.125 6 C-41.71860562 3.49974333 -40.5570875 3.23336553 -38 2 C-35.71323585 0.48220055 -33.46681818 -1.08573864 -31.21875 -2.66015625 C-21.96180455 -8.25017789 -8.42262752 -5.86985294 0 0 Z M-28 10 C-29.24174796 11.9001177 -29.24174796 11.9001177 -30 14 C-30.66666667 15.33333333 -31.33333333 16.66666667 -32 18 C-32.66 17.67 -33.32 17.34 -34 17 C-34.2493357 18.60115576 -34.47378648 20.20620159 -34.6875 21.8125 C-34.81511719 22.70582031 -34.94273437 23.59914063 -35.07421875 24.51953125 C-35.26087653 27.05071617 -35.26087653 27.05071617 -33.5703125 28.640625 C-32.79300781 29.31351562 -32.79300781 29.31351562 -32 30 C-31.731875 30.969375 -31.46375 31.93875 -31.1875 32.9375 C-29.58729478 37.06434505 -27.95015831 38.06083138 -24 40 C-19.52668829 41.18746093 -15.51280225 41.49839407 -11.125 39.875 C-7.7335967 37.84015802 -6.70526113 36.49578531 -5 33 C-2.4 29.4 -2.4 29.4 -1 28 C-0.55845793 24.94705196 -0.51545922 22.0479178 -1 19 C-3.333492 16.16588845 -3.333492 16.16588845 -6 14 C-6.144375 13.29875 -6.28875 12.5975 -6.4375 11.875 C-6.87867672 9.71125974 -6.87867672 9.71125974 -9.4375 8.25 C-15.67854645 6.06015914 -22.72672258 5.38588226 -28 10 Z M-48 18 C-48 21.96 -48 25.92 -48 30 C-47.67 30 -47.34 30 -47 30 C-47 26.04 -47 22.08 -47 18 C-47.33 18 -47.66 18 -48 18 Z M11 25 C11 26.98 11 28.96 11 31 C11.33 31 11.66 31 12 31 C12 29.02 12 27.04 12 25 C11.67 25 11.34 25 11 25 Z M10 32 C11 35 11 35 11 35 Z " fill="#0076B6" transform="translate(335,233)"/>
<path d="M0 0 C4.95 0 9.9 0 15 0 C15 6.6 15 13.2 15 20 C20.61 20 26.22 20 32 20 C32 13.73 32 7.46 32 1 C36.18462795 -1.09231398 41.32144372 0 46 0 C46 18.81 46 37.62 46 57 C34 57 34 57 32 56 C32 49.4 32 42.8 32 36 C26.39 36 20.78 36 15 36 C15 42.93 15 49.86 15 57 C10.05 57 5.1 57 0 57 C0 38.19 0 19.38 0 0 Z M13 21 C13 21.33 13 21.66 13 22 C19.93 22 26.86 22 34 22 C34 21.67 34 21.34 34 21 C27.07 21 20.14 21 13 21 Z M13 34 C13 34.33 13 34.66 13 35 C19.93 35 26.86 35 34 35 C34 34.67 34 34.34 34 34 C27.07 34 20.14 34 13 34 Z " fill="#0079B4" transform="translate(119,228)"/>
<path d="M0 0 C0.99245476 0.00212242 0.99245476 0.00212242 2.00495911 0.00428772 C4.11402953 0.00987629 6.22299302 0.0224266 8.33203125 0.03515625 C9.76367034 0.04017273 11.1953111 0.04473538 12.62695312 0.04882812 C16.13284713 0.05984195 19.63867875 0.0770987 23.14453125 0.09765625 C23.17139678 2.07675023 23.190865 4.05594596 23.20703125 6.03515625 C23.21863281 7.13730469 23.23023438 8.23945313 23.2421875 9.375 C23.14453125 12.09765625 23.14453125 12.09765625 22.14453125 13.09765625 C20.21974312 13.25572156 18.28953915 13.34879125 16.359375 13.4140625 C14.60463867 13.4769043 14.60463867 13.4769043 12.81445312 13.54101562 C11.58275391 13.58033203 10.35105469 13.61964844 9.08203125 13.66015625 C7.84646484 13.70333984 6.61089844 13.74652344 5.33789062 13.79101562 C2.2735579 13.89749823 -0.79085948 13.99951049 -3.85546875 14.09765625 C-4.84546875 16.40765625 -5.83546875 18.71765625 -6.85546875 21.09765625 C-5.55351562 21.14664063 -4.2515625 21.195625 -2.91015625 21.24609375 C-1.18357404 21.32116254 0.54298747 21.39670858 2.26953125 21.47265625 C3.12546875 21.50359375 3.98140625 21.53453125 4.86328125 21.56640625 C11.20813852 21.85924582 17.45093905 22.40406405 22.14453125 27.09765625 C22.93657959 27.76764648 22.93657959 27.76764648 23.74462891 28.45117188 C25.53560459 30.55761415 25.53079912 31.70381969 25.54296875 34.44140625 C25.54876953 35.69244141 25.54876953 35.69244141 25.5546875 36.96875 C25.54308594 37.83628906 25.53148437 38.70382812 25.51953125 39.59765625 C25.53113281 40.46519531 25.54273438 41.33273437 25.5546875 42.2265625 C25.55082031 43.06058594 25.54695313 43.89460938 25.54296875 44.75390625 C25.53958496 45.51509766 25.53620117 46.27628906 25.53271484 47.06054688 C25.04406889 49.62486248 24.10993152 50.43513274 22.14453125 52.09765625 C21.48453125 52.75765625 20.82453125 53.41765625 20.14453125 54.09765625 C19.15453125 54.42765625 18.16453125 54.75765625 17.14453125 55.09765625 C16.39856689 55.44425293 15.65260254 55.79084961 14.8840332 56.14794922 C11.55459388 57.30217068 8.83363978 57.32399201 5.3125 57.29296875 C4.02021484 57.28652344 2.72792969 57.28007812 1.39648438 57.2734375 C0.04166395 57.25672952 -1.31315376 57.23979967 -2.66796875 57.22265625 C-4.04231126 57.21261628 -5.41666078 57.20349221 -6.79101562 57.1953125 C-10.14601192 57.17176867 -13.50065074 57.13888192 -16.85546875 57.09765625 C-16.85546875 53.13765625 -16.85546875 49.17765625 -16.85546875 45.09765625 C-15.08558594 45.04867187 -13.31570313 44.9996875 -11.4921875 44.94921875 C-9.17576516 44.87419293 -6.8593597 44.79864502 -4.54296875 44.72265625 C-2.79209961 44.67625 -2.79209961 44.67625 -1.00585938 44.62890625 C0.6715332 44.57089844 0.6715332 44.57089844 2.3828125 44.51171875 C3.41446533 44.48029785 4.44611816 44.44887695 5.5090332 44.41650391 C8.37296361 44.27090996 8.37296361 44.27090996 11.14453125 42.09765625 C11.39474695 39.01399754 11.39474695 39.01399754 11.14453125 36.09765625 C8.44786121 34.74932123 5.93659605 34.97044156 2.97290039 34.90869141 C-6.99788738 34.66063718 -12.76604868 33.33521345 -19.85546875 26.09765625 C-20.51546875 26.75765625 -21.17546875 27.41765625 -21.85546875 28.09765625 C-22.0774446 25.99488502 -22.28260512 23.89033323 -22.48046875 21.78515625 C-22.59648437 20.61339844 -22.7125 19.44164062 -22.83203125 18.234375 C-22.85546875 15.09765625 -22.85546875 15.09765625 -20.85546875 12.09765625 C-20.75234375 11.43765625 -20.64921875 10.77765625 -20.54296875 10.09765625 C-19.52033771 7.12272958 -17.56535819 6.57577776 -14.85546875 5.09765625 C-13.55609375 4.04578125 -13.55609375 4.04578125 -12.23046875 2.97265625 C-8.22146796 -0.19234437 -4.95886889 -0.0209235 0 0 Z M-19.85546875 22.09765625 C-18.85546875 24.09765625 -18.85546875 24.09765625 -18.85546875 24.09765625 Z " fill="#0076B4" transform="translate(474.85546875,227.90234375)"/>
<path d="M0 0 C2.12493141 -0.02693575 4.24995912 -0.04636628 6.375 -0.0625 C7.55835938 -0.07410156 8.74171875 -0.08570313 9.9609375 -0.09765625 C13 0 13 0 15 1 C14.97905273 2.16571533 14.95810547 3.33143066 14.93652344 4.5324707 C14.86416713 8.85412327 14.81821638 13.17572224 14.78027344 17.49780273 C14.76014793 19.36898804 14.73284451 21.24011039 14.69824219 23.11108398 C14.64976419 25.79947432 14.62704128 28.48703388 14.609375 31.17578125 C14.58872986 32.01337479 14.56808472 32.85096832 14.54681396 33.71394348 C14.47383619 38.29408531 14.47383619 38.29408531 16.87597656 41.99682617 C19.40997894 43.19363258 21.18003203 43.86571581 24 44 C25.98 43.01 27.96 42.02 30 41 C30.33 27.8 30.66 14.6 31 1 C33.88415883 -0.44207941 36.41721528 -0.09394887 39.625 -0.0625 C40.81351562 -0.05347656 42.00203125 -0.04445312 43.2265625 -0.03515625 C44.14179688 -0.02355469 45.05703125 -0.01195312 46 0 C46.09908722 6.1563653 46.17157253 12.3122635 46.21972656 18.46923828 C46.23980659 20.56241953 46.2670764 22.65554492 46.30175781 24.74853516 C46.35043434 27.76218469 46.37300512 30.77509073 46.390625 33.7890625 C46.41127014 34.72054108 46.43191528 35.65201965 46.45318604 36.61172485 C46.45517092 42.39614138 45.81069816 45.57295667 42 50 C40.0390625 51.2109375 40.0390625 51.2109375 38 52 C36.89785156 52.63808594 36.89785156 52.63808594 35.7734375 53.2890625 C29.79319006 56.62007981 24.84094161 58.3384451 18 57 C14.44269567 55.66337973 11.25734782 53.94543837 8 52 C7.36449219 51.66613281 6.72898437 51.33226562 6.07421875 50.98828125 C4.4375 50.0625 4.4375 50.0625 2 48 C1.1875 44.9375 1.1875 44.9375 1 42 C0.505 40.515 0.505 40.515 0 39 C-0.085409 36.05035887 -0.11582927 33.12496981 -0.09765625 30.17578125 C-0.09553383 28.88367989 -0.09553383 28.88367989 -0.09336853 27.56547546 C-0.0877714 24.81444831 -0.07521946 22.06350256 -0.0625 19.3125 C-0.05748463 17.4472668 -0.05292179 15.58203233 -0.04882812 13.71679688 C-0.03780292 9.14449989 -0.02054027 4.57226375 0 0 Z M44 42 C45 44 45 44 45 44 Z " fill="#0078BA" transform="translate(352,228)"/>
<path d="M0 0 C0 18.81 0 37.62 0 57 C-3.63 57 -7.26 57 -11 57 C-11 49.41 -11 41.82 -11 34 C-10.67 34 -10.34 34 -10 34 C-10 40.93 -10 47.86 -10 55 C-7.36 55 -4.72 55 -2 55 C-2 37.51 -2 20.02 -2 2 C-4.64 2 -7.28 2 -10 2 C-10 8.93 -10 15.86 -10 23 C-10.66 22.67 -11.32 22.34 -12 22 C-13.4465242 21.84932786 -14.8987934 21.75138964 -16.3515625 21.68359375 C-17.20234375 21.64169922 -18.053125 21.59980469 -18.9296875 21.55664062 C-19.81914062 21.51732422 -20.70859375 21.47800781 -21.625 21.4375 C-22.97078125 21.37272461 -22.97078125 21.37272461 -24.34375 21.30664062 C-26.56234283 21.20043139 -28.7810488 21.09838806 -31 21 C-31 20.67 -31 20.34 -31 20 C-25.39 20 -19.78 20 -14 20 C-14 13.73 -14 7.46 -14 1 C-9.81537205 -1.09231398 -4.67855628 0 0 0 Z M-13 22 C-12.67 22.66 -12.34 23.32 -12 24 C-19.26 24 -26.52 24 -34 24 C-34 23.67 -34 23.34 -34 23 C-23.605 22.505 -23.605 22.505 -13 22 Z " fill="#0084C1" transform="translate(165,228)"/>
<path d="M0 0 C0.33 0 0.66 0 1 0 C1 18.81 1 37.62 1 57 C0.67 57 0.34 57 0 57 C0 38.19 0 19.38 0 0 Z " fill="#007A7A" transform="translate(404,228)"/>
<path d="M0 0 C0.33 0 0.66 0 1 0 C1 18.81 1 37.62 1 57 C0.67 57 0.34 57 0 57 C0 38.19 0 19.38 0 0 Z " fill="#007A7A" transform="translate(283,228)"/>
<path d="M0 0 C0.33 0 0.66 0 1 0 C1 18.81 1 37.62 1 57 C0.67 57 0.34 57 0 57 C0 38.19 0 19.38 0 0 Z " fill="#0052AC" transform="translate(234,228)"/>
<path d="M0 0 C0.33 0 0.66 0 1 0 C1 18.81 1 37.62 1 57 C0.67 57 0.34 57 0 57 C0 38.19 0 19.38 0 0 Z " fill="#0052AC" transform="translate(166,228)"/>
<path d="M0 0 C0.33 0 0.66 0 1 0 C1 18.15 1 36.3 1 55 C0.67 55 0.34 55 0 55 C0 36.85 0 18.7 0 0 Z " fill="#00FFFF" transform="translate(117,229)"/>
<path d="M0 0 C0.33 0 0.66 0 1 0 C1 12.87 1 25.74 1 39 C0.67 39 0.34 39 0 39 C0 26.13 0 13.26 0 0 Z " fill="#00787F" transform="translate(399,228)"/>
<path d="M0 0 C0.33 0 0.66 0 1 0 C1 12.87 1 25.74 1 39 C0.67 39 0.34 39 0 39 C0 26.13 0 13.26 0 0 Z " fill="#0075F1" transform="translate(350,228)"/>
<path d="M0 0 C9.9 0 19.8 0 30 0 C30 0.33 30 0.66 30 1 C20.1 1 10.2 1 0 1 C0 0.67 0 0.34 0 0 Z " fill="#0083C4" transform="translate(468,226)"/>
<path d="M0 0 C9.57 0 19.14 0 29 0 C29 0.33 29 0.66 29 1 C19.43 1 9.86 1 0 1 C0 0.67 0 0.34 0 0 Z " fill="#007FB9" transform="translate(458,286)"/>
<path d="M0 0 C8.91 0 17.82 0 27 0 C27 0.33 27 0.66 27 1 C18.09 1 9.18 1 0 1 C0 0.67 0 0.34 0 0 Z " fill="#007BBC" transform="translate(407,226)"/>
<path d="M0 0 C1.65 1.32 3.3 2.64 5 4 C4.67 4.66 4.34 5.32 4 6 C3.01 6 2.02 6 1 6 C-0.6875 4 -0.6875 4 -2 2 C-1.34 2 -0.68 2 0 2 C0 1.34 0 0.68 0 0 Z " fill="#0085D0" transform="translate(94,208)"/>
<path d="M0 0 C0.33 0 0.66 0 1 0 C1 6.27 1 12.54 1 19 C0.67 19 0.34 19 0 19 C0 12.73 0 6.46 0 0 Z " fill="#0088B7" transform="translate(112,240)"/>
<path d="M0 0 C5.94 0 11.88 0 18 0 C18 0.33 18 0.66 18 1 C12.06 1 6.12 1 0 1 C0 0.67 0 0.34 0 0 Z " fill="#007AA0" transform="translate(466,263)"/>
<path d="M0 0 C5.61 0 11.22 0 17 0 C17 0.33 17 0.66 17 1 C11.39 1 5.78 1 0 1 C0 0.67 0 0.34 0 0 Z " fill="#0084BF" transform="translate(470,248)"/>
<path d="M0 0 C5.28 0 10.56 0 16 0 C16 0.33 16 0.66 16 1 C10.72 1 5.44 1 0 1 C0 0.67 0 0.34 0 0 Z " fill="#006FC9" transform="translate(309,226)"/>
<path d="M0 0 C4.95 0 9.9 0 15 0 C15 0.33 15 0.66 15 1 C10.05 1 5.1 1 0 1 C0 0.67 0 0.34 0 0 Z " fill="#0065B5" transform="translate(193,226)"/>
<path d="M0 0 C2.31 1.98 4.62 3.96 7 6 C4 6 4 6 1.8125 4.125 C0 2 0 2 0 0 Z " fill="#004BA0" transform="translate(12,286)"/>
<path d="M0 0 C4.29 0 8.58 0 13 0 C13 0.33 13 0.66 13 1 C8.71 1 4.42 1 0 1 C0 0.67 0 0.34 0 0 Z " fill="#00729E" transform="translate(406,286)"/>
<path d="M0 0 C4.29 0 8.58 0 13 0 C13 0.33 13 0.66 13 1 C8.71 1 4.42 1 0 1 C0 0.67 0 0.34 0 0 Z " fill="#0078C2" transform="translate(269,286)"/>
<path d="M0 0 C4.29 0 8.58 0 13 0 C13 0.33 13 0.66 13 1 C8.71 1 4.42 1 0 1 C0 0.67 0 0.34 0 0 Z " fill="#005BB0" transform="translate(236,226)"/>
<path d="M0 0 C3.96 0 7.92 0 12 0 C12 0.33 12 0.66 12 1 C8.04 1 4.08 1 0 1 C0 0.67 0 0.34 0 0 Z " fill="#007BBD" transform="translate(435,286)"/>
<path d="M0 0 C3.96 0 7.92 0 12 0 C12 0.33 12 0.66 12 1 C8.04 1 4.08 1 0 1 C0 0.67 0 0.34 0 0 Z " fill="#0086C2" transform="translate(236,286)"/>
<path d="M0 0 C3.96 0 7.92 0 12 0 C12 0.33 12 0.66 12 1 C8.04 1 4.08 1 0 1 C0 0.67 0 0.34 0 0 Z " fill="#007FBF" transform="translate(153,286)"/>
<path d="M0 0 C3.96 0 7.92 0 12 0 C12 0.33 12 0.66 12 1 C8.04 1 4.08 1 0 1 C0 0.67 0 0.34 0 0 Z " fill="#0078C2" transform="translate(120,286)"/>
<path d="M0 0 C0.33 0 0.66 0 1 0 C1 3.96 1 7.92 1 12 C0.67 12 0.34 12 0 12 C0 8.04 0 4.08 0 0 Z " fill="#00AAB1" transform="translate(456,273)"/>
<path d="M0 0 C0.33 0 0.66 0 1 0 C1 3.96 1 7.92 1 12 C0.67 12 0.34 12 0 12 C0 8.04 0 4.08 0 0 Z " fill="#0074A4" transform="translate(499,228)"/>
<path d="M0 0 C3.96 0 7.92 0 12 0 C12 0.33 12 0.66 12 1 C8.04 1 4.08 1 0 1 C0 0.67 0 0.34 0 0 Z " fill="#0070C2" transform="translate(386,226)"/>
<path d="M0 0 C3.96 0 7.92 0 12 0 C12 0.33 12 0.66 12 1 C8.04 1 4.08 1 0 1 C0 0.67 0 0.34 0 0 Z " fill="#0070C2" transform="translate(352,226)"/>
<path d="M0 0 C3.96 0 7.92 0 12 0 C12 0.33 12 0.66 12 1 C8.04 1 4.08 1 0 1 C0 0.67 0 0.34 0 0 Z " fill="#005C9B" transform="translate(270,226)"/>
<path d="M0 0 C3.96 0 7.92 0 12 0 C12 0.33 12 0.66 12 1 C8.04 1 4.08 1 0 1 C0 0.67 0 0.34 0 0 Z " fill="#006AA2" transform="translate(153,226)"/>
<path d="M0 0 C3.96 0 7.92 0 12 0 C12 0.33 12 0.66 12 1 C8.04 1 4.08 1 0 1 C0 0.67 0 0.34 0 0 Z " fill="#005C9B" transform="translate(120,226)"/>
<path d="M0 0 C3.63 0 7.26 0 11 0 C11 0.33 11 0.66 11 1 C7.37 1 3.74 1 0 1 C0 0.67 0 0.34 0 0 Z " fill="#006CB6" transform="translate(312,287)"/>
<path d="M0 0 C3.63 0 7.26 0 11 0 C11 0.33 11 0.66 11 1 C7.37 1 3.74 1 0 1 C0 0.67 0 0.34 0 0 Z " fill="#0087BC" transform="translate(195,287)"/>
<path d="M0 0 C3.3 0 6.6 0 10 0 C10 0.33 10 0.66 10 1 C6.7 1 3.4 1 0 1 C0 0.67 0 0.34 0 0 Z " fill="#0065B6" transform="translate(370,286)"/>
<path d="M0 0 C0.33 0 0.66 0 1 0 C1 2.97 1 5.94 1 9 C0.67 9 0.34 9 0 9 C0 6.03 0 3.06 0 0 Z " fill="#0062C6" transform="translate(169,252)"/>
<path d="M0 0 C0.33 0 0.66 0 1 0 C1 2.97 1 5.94 1 9 C0.67 9 0.34 9 0 9 C0 6.03 0 3.06 0 0 Z " fill="#0088CD" transform="translate(332,252)"/>
<path d="M0 0 C2.97 0 5.94 0 9 0 C9 0.33 9 0.66 9 1 C6.03 1 3.06 1 0 1 C0 0.67 0 0.34 0 0 Z " fill="#00A9C1" transform="translate(196,241)"/>
<path d="M0 0 C2.64 0 5.28 0 8 0 C8 0.33 8 0.66 8 1 C5.36 1 2.72 1 0 1 C0 0.67 0 0.34 0 0 Z " fill="#007FAC" transform="translate(313,241)"/>
<path d="M0 0 C2.97 0.495 2.97 0.495 6 1 C4.125 1.625 4.125 1.625 2 2 C1.34 1.34 0.68 0.68 0 0 Z " fill="#006DB6" transform="translate(305,285)"/>
<path d="M0 0 C0.33 0 0.66 0 1 0 C1 2.31 1 4.62 1 7 C0.67 7 0.34 7 0 7 C0 4.69 0 2.38 0 0 Z " fill="#00609D" transform="translate(347,249)"/>
<path d="M0 0 C2.475 0.495 2.475 0.495 5 1 C4.01 1.495 4.01 1.495 3 2 C2.01 1.34 1.02 0.68 0 0 Z " fill="#00468D" transform="translate(208,227)"/>
<path d="M0 0 C0.66 0.33 1.32 0.66 2 1 C0.68 1.33 -0.64 1.66 -2 2 C-1.34 1.34 -0.68 0.68 0 0 Z " fill="#004361" transform="translate(329,284)"/>
<path d="M0 0 C1.65 0 3.3 0 5 0 C5 0.33 5 0.66 5 1 C3.35 1 1.7 1 0 1 C0 0.67 0 0.34 0 0 Z " fill="#00AABB" transform="translate(315,272)"/>
<path d="M0 0 C1.65 0 3.3 0 5 0 C5 0.33 5 0.66 5 1 C3.35 1 1.7 1 0 1 C0 0.67 0 0.34 0 0 Z " fill="#0098CC" transform="translate(198,272)"/>
<path d="M0 0 C0.33 0.99 0.66 1.98 1 3 C0.01 3.495 0.01 3.495 -1 4 C-0.67 2.68 -0.34 1.36 0 0 Z " fill="#0054A9" transform="translate(228,268)"/>
<path d="M0 0 C0.33 0 0.66 0 1 0 C1 1.65 1 3.3 1 5 C0.67 5 0.34 5 0 5 C0 3.35 0 1.7 0 0 Z " fill="#004CCC" transform="translate(301,254)"/>
<path d="M0 0 C0.99 0.33 1.98 0.66 3 1 C2.67 1.66 2.34 2.32 2 3 C1.34 2.01 0.68 1.02 0 0 Z " fill="#004361" transform="translate(336,233)"/>
<path d="M0 0 C4 1 4 1 4 1 Z " fill="#008AE9" transform="translate(323,286)"/>
<path d="M0 0 C0.66 0.33 1.32 0.66 2 1 C1.01 1 0.02 1 -1 1 C-0.67 0.67 -0.34 0.34 0 0 Z " fill="#00156A" transform="translate(388,281)"/>
<path d="M0 0 C4 1 4 1 4 1 Z " fill="#005FAF" transform="translate(311,271)"/>
<path d="M0 0 C4 1 4 1 4 1 Z " fill="#00BFE9" transform="translate(203,271)"/>
<path d="M0 0 C4 1 4 1 4 1 Z " fill="#00BFD4" transform="translate(194,271)"/>
<path d="M0 0 C0.99 0.33 1.98 0.66 3 1 C2.01 1 1.02 1 0 1 C0 0.67 0 0.34 0 0 Z " fill="#00748A" transform="translate(47,249)"/>
<path d="M0 0 C4 1 4 1 4 1 Z " fill="#007F94" transform="translate(37,195)"/>
<path d="M0 0 C3 1 3 1 3 1 Z " fill="#009BCD" transform="translate(70,304)"/>
<path d="M0 0 C3 1 3 1 3 1 Z " fill="#009BCD" transform="translate(38,304)"/>
<path d="M0 0 C3 1 3 1 3 1 Z " fill="#007FE9" transform="translate(73,303)"/>
<path d="M0 0 C3 1 3 1 3 1 Z " fill="#006363" transform="translate(35,303)"/>
<path d="M0 0 C3 1 3 1 3 1 Z " fill="#004663" transform="translate(78,301)"/>
<path d="M0 0 C3 1 3 1 3 1 Z " fill="#008DB8" transform="translate(207,286)"/>
<path d="M0 0 C3 1 3 1 3 1 Z " fill="#008D8D" transform="translate(191,286)"/>
<path d="M0 0 C3 1 3 1 3 1 Z " fill="#0071B8" transform="translate(487,285)"/>
<path d="M0 0 C3 1 3 1 3 1 Z " fill="#00A9E9" transform="translate(380,285)"/>
<path d="M0 0 C3 1 3 1 3 1 Z " fill="#009BCD" transform="translate(367,285)"/>
<path d="M0 0 C3 1 3 1 3 1 Z " fill="#0038C6" transform="translate(210,285)"/>
<path d="M0 0 C3 1 3 1 3 1 Z " fill="#0046E2" transform="translate(188,285)"/>
<path d="M0 0 C0.33 0.66 0.66 1.32 1 2 C0.34 1.67 -0.32 1.34 -1 1 C-0.67 0.67 -0.34 0.34 0 0 Z " fill="#00468D" transform="translate(222,277)"/>
<path d="M0 0 C3 1 3 1 3 1 Z " fill="#00639B" transform="translate(320,271)"/>
<path d="M0 0 C3 1 3 1 3 1 Z " fill="#00546A" transform="translate(376,270)"/>
<path d="M0 0 C3 1 3 1 3 1 Z " fill="#008D8D" transform="translate(54,270)"/>
<path d="" fill="#00546A" transform="translate(0,0)"/>
<path d="" fill="#008DC6" transform="translate(0,0)"/>
<path d="" fill="#005454" transform="translate(0,0)"/>
<path d="" fill="#008DB8" transform="translate(0,0)"/>
<path d="" fill="#0071A2" transform="translate(0,0)"/>
<path d="" fill="#009BB8" transform="translate(0,0)"/>
<path d="" fill="#0046CD" transform="translate(0,0)"/>
<path d="M0 0 C3 1 3 1 3 1 Z " fill="#00C6C6" transform="translate(54,253)"/>
<path d="M0 0 C3 1 3 1 3 1 Z " fill="#0071E2" transform="translate(487,249)"/>
<path d="" fill="#0071A2" transform="translate(0,0)"/>
<path d="" fill="#0071C6" transform="translate(0,0)"/>
<path d="M0 0 C3 1 3 1 3 1 Z " fill="#0054BF" transform="translate(431,242)"/>
<path d="" fill="#007FA9" transform="translate(0,0)"/>
<path d="M0 0 C0.66 0.66 1.32 1.32 2 2 C1.34 2 0.68 2 0 2 C0 1.34 0 0.68 0 0 Z " fill="#0063CD" transform="translate(85,235)"/>
<path d="M0 0 C0.33 0.66 0.66 1.32 1 2 C0.34 1.67 -0.32 1.34 -1 1 C-0.67 0.67 -0.34 0.34 0 0 Z " fill="#0063CD" transform="translate(25,235)"/>
<path d="" fill="#007FBF" transform="translate(0,0)"/>
<path d="" fill="#0071E2" transform="translate(0,0)"/>
<path d="M0 0 C0.99 0.495 0.99 0.495 2 1 C1.01 1.495 1.01 1.495 0 2 C0 1.34 0 0.68 0 0 Z " fill="#0046E2" transform="translate(458,232)"/>
<path d="M0 0 C0.99 0.495 0.99 0.495 2 1 C1.01 1.495 1.01 1.495 0 2 C0 1.34 0 0.68 0 0 Z " fill="#0038AA" transform="translate(460,230)"/>
<path d="" fill="#008DC6" transform="translate(0,0)"/>
<path d="" fill="#007F94" transform="translate(0,0)"/>
<path d="M0 0 C3 1 3 1 3 1 Z " fill="#0054E9" transform="translate(465,227)"/>
<path d="M0 0 C3 1 3 1 3 1 Z " fill="#0071A2" transform="translate(434,227)"/>
<path d="M0 0 C3 1 3 1 3 1 Z " fill="#00AAC6" transform="translate(325,227)"/>
<path d="M0 0 C3 1 3 1 3 1 Z " fill="#0063B8" transform="translate(306,227)"/>
<path d="M0 0 C3 1 3 1 3 1 Z " fill="#009BE2" transform="translate(190,227)"/>
<path d="M0 0 C3 1 3 1 3 1 Z " fill="#00AAC6" transform="translate(54,217)"/>
<path d="M0 0 C3 1 3 1 3 1 Z " fill="#00547F" transform="translate(78,198)"/>
<path d="M0 0 C3 1 3 1 3 1 Z " fill="#0054AA" transform="translate(30,198)"/>
<path d="M0 0 C3 1 3 1 3 1 Z " fill="#002AE9" transform="translate(73,196)"/>
<path d="M0 0 C3 1 3 1 3 1 Z " fill="#009BCD" transform="translate(70,195)"/>
<path d="M0 0 C2 1 2 1 2 1 Z " fill="#007FFF" transform="translate(76,302)"/>
<path d="M0 0 C2 1 2 1 2 1 Z " fill="#006AD4" transform="translate(33,302)"/>
<path d="M0 0 C2 1 2 1 2 1 Z " fill="#009494" transform="translate(31,301)"/>
<path d="M0 0 C2 1 2 1 2 1 Z " fill="#003FFF" transform="translate(29,300)"/>
<path d="M0 0 C2 1 2 1 2 1 Z " fill="#007FBF" transform="translate(82,299)"/>
<path d="M0 0 C2 1 2 1 2 1 Z " fill="#007FBF" transform="translate(27,299)"/>
<path d="M0 0 C2 1 2 1 2 1 Z " fill="#0055D4" transform="translate(84,298)"/>
<path d="M0 0 C2 1 2 1 2 1 Z " fill="#0055D4" transform="translate(25,298)"/>
<path d="M0 0 C2 1 2 1 2 1 Z " fill="#002A55" transform="translate(22,296)"/>
<path d="M0 0 C2 1 2 1 2 1 Z " fill="#007FBF" transform="translate(490,284)"/>
<path d="M0 0 C2 1 2 1 2 1 Z " fill="#006A94" transform="translate(383,284)"/>
<path d="M0 0 C2 1 2 1 2 1 Z " fill="#007FFF" transform="translate(365,284)"/>
<path d="M0 0 C2 1 2 1 2 1 Z " fill="#00D4D4" transform="translate(303,284)"/>
<path d="M0 0 C2 1 2 1 2 1 Z " fill="#007F7F" transform="translate(385,283)"/>
<path d="M0 0 C2 1 2 1 2 1 Z " fill="#00BFFF" transform="translate(363,283)"/>
<path d="M0 0 C2 1 2 1 2 1 Z " fill="#007F7F" transform="translate(331,283)"/>
<path d="M0 0 C2 1 2 1 2 1 Z " fill="#002A55" transform="translate(301,283)"/>
<path d="M0 0 C2 1 2 1 2 1 Z " fill="#002AD4" transform="translate(361,282)"/>
<path d="M0 0 C2 1 2 1 2 1 Z " fill="#00D4D4" transform="translate(216,282)"/>
<path d="M0 0 C2 1 2 1 2 1 Z " fill="#00AAD4" transform="translate(183,282)"/>
<path d="M0 0 C2 1 2 1 2 1 Z " fill="#007F7F" transform="translate(56,282)"/>
<path d="M0 0 C2 1 2 1 2 1 Z " fill="#007FFF" transform="translate(334,281)"/>
<path d="M0 0 C2 1 2 1 2 1 Z " fill="#005555" transform="translate(59,280)"/>
<path d="M0 0 C2 1 2 1 2 1 Z " fill="#0055D4" transform="translate(50,280)"/>
<path d="M0 0 C2 1 2 1 2 1 Z " fill="#00AAD4" transform="translate(61,279)"/>
<path d="M0 0 C2 1 2 1 2 1 Z " fill="#00D4D4" transform="translate(48,279)"/>
<path d="M0 0 C2 1 2 1 2 1 Z " fill="#002AD4" transform="translate(63,278)"/>
<path d="M0 0 C2 1 2 1 2 1 Z " fill="#002AD4" transform="translate(46,278)"/>
<path d="M0 0 C2 1 2 1 2 1 Z " fill="#003FBF" transform="translate(66,276)"/>
<path d="M0 0 C2 1 2 1 2 1 Z " fill="#003FBF" transform="translate(43,276)"/>
<path d="" fill="#005F7F" transform="translate(0,0)"/>
<path d="M0 0 C2 1 2 1 2 1 Z " fill="#007FBF" transform="translate(68,275)"/>
<path d="M0 0 C2 1 2 1 2 1 Z " fill="#006A94" transform="translate(41,275)"/>
<path d="" fill="#002AD4" transform="translate(0,0)"/>
<path d="M0 0 C2 1 2 1 2 1 Z " fill="#002A55" transform="translate(70,274)"/>
<path d="" fill="#007FBF" transform="translate(0,0)"/>
<path d="" fill="#006AD4" transform="translate(0,0)"/>
<path d="" fill="#007FFF" transform="translate(0,0)"/>
<path d="M0 0 C2 1 2 1 2 1 Z " fill="#00AAD4" transform="translate(73,272)"/>
<path d="M0 0 C2 1 2 1 2 1 Z " fill="#00AAD4" transform="translate(36,272)"/>
<path d="" fill="#007FFF" transform="translate(0,0)"/>
<path d="" fill="#00D4D4" transform="translate(0,0)"/>
<path d="M0 0 C2 1 2 1 2 1 Z " fill="#007F7F" transform="translate(75,271)"/>
<path d="M0 0 C2 1 2 1 2 1 Z " fill="#007F7F" transform="translate(34,271)"/>
<path d="" fill="#007FBF" transform="translate(0,0)"/>
<path d="M0 0 C2 1 2 1 2 1 Z " fill="#002AD4" transform="translate(484,270)"/>
<path d="M0 0 C2 1 2 1 2 1 Z " fill="#007F9F" transform="translate(371,270)"/>
<path d="M0 0 C2 1 2 1 2 1 Z " fill="#003FDF" transform="translate(309,270)"/>
<path d="M0 0 C2 1 2 1 2 1 Z " fill="#0094BF" transform="translate(207,270)"/>
<path d="M0 0 C2 1 2 1 2 1 Z " fill="#009494" transform="translate(192,270)"/>
<path d="M0 0 C2 1 2 1 2 1 Z " fill="#003F5F" transform="translate(379,269)"/>
<path d="M0 0 C2 1 2 1 2 1 Z " fill="#003F3F" transform="translate(369,269)"/>
<path d="M0 0 C2 1 2 1 2 1 Z " fill="#003F3F" transform="translate(325,269)"/>
<path d="M0 0 C2 1 2 1 2 1 Z " fill="#00BFDF" transform="translate(307,269)"/>
<path d="M0 0 C2 1 2 1 2 1 Z " fill="#002AD4" transform="translate(57,269)"/>
<path d="M0 0 C2 1 2 1 2 1 Z " fill="#002AD4" transform="translate(52,269)"/>
<path d="" fill="#007FAA" transform="translate(0,0)"/>
<path d="" fill="#003F9F" transform="translate(0,0)"/>
<path d="" fill="#0055AA" transform="translate(0,0)"/>
<path d="M0 0 C2 1 2 1 2 1 Z " fill="#00BFFF" transform="translate(60,267)"/>
<path d="M0 0 C2 1 2 1 2 1 Z " fill="#00BFFF" transform="translate(49,267)"/>
<path d="M0 0 C2 1 2 1 2 1 Z " fill="#00AAD4" transform="translate(62,266)"/>
<path d="M0 0 C2 1 2 1 2 1 Z " fill="#00AAD4" transform="translate(47,266)"/>
<path d="M0 0 C2 1 2 1 2 1 Z " fill="#005555" transform="translate(64,265)"/>
<path d="M0 0 C2 1 2 1 2 1 Z " fill="#00CCE5" transform="translate(484,264)"/>
<path d="M0 0 C2 1 2 1 2 1 Z " fill="#007FFF" transform="translate(67,263)"/>
<path d="M0 0 C2 1 2 1 2 1 Z " fill="#007FBF" transform="translate(42,263)"/>
<path d="M0 0 C2 1 2 1 2 1 Z " fill="#0055FF" transform="translate(464,262)"/>
<path d="M0 0 C2 1 2 1 2 1 Z " fill="#00BFDF" transform="translate(69,262)"/>
<path d="M0 0 C2 1 2 1 2 1 Z " fill="#009FBF" transform="translate(40,262)"/>
<path d="M0 0 C2 1 2 1 2 1 Z " fill="#003F5F" transform="translate(38,261)"/>
<path d="M0 0 C2 1 2 1 2 1 Z " fill="#003FBF" transform="translate(461,260)"/>
<path d="" fill="#009494" transform="translate(0,0)"/>
<path d="M0 0 C2 1 2 1 2 1 Z " fill="#007FBF" transform="translate(74,259)"/>
<path d="M0 0 C2 1 2 1 2 1 Z " fill="#007F7F" transform="translate(35,259)"/>
<path d="M0 0 C2 1 2 1 2 1 Z " fill="#003FDF" transform="translate(433,258)"/>
<path d="M0 0 C2 1 2 1 2 1 Z " fill="#006A94" transform="translate(57,252)"/>
<path d="M0 0 C2 1 2 1 2 1 Z " fill="#006A94" transform="translate(52,252)"/>
<path d="M0 0 C2 1 2 1 2 1 Z " fill="#007F7F" transform="translate(59,251)"/>
<path d="M0 0 C2 1 2 1 2 1 Z " fill="#007F7F" transform="translate(50,251)"/>
<path d="M0 0 C2 1 2 1 2 1 Z " fill="#006A94" transform="translate(490,250)"/>
<path d="M0 0 C2 1 2 1 2 1 Z " fill="#00BFBF" transform="translate(61,250)"/>
<path d="M0 0 C2 1 2 1 2 1 Z " fill="#0055D4" transform="translate(64,248)"/>
<path d="M0 0 C2 1 2 1 2 1 Z " fill="#005555" transform="translate(45,248)"/>
<path d="M0 0 C2 1 2 1 2 1 Z " fill="#00D4FF" transform="translate(66,247)"/>
<path d="M0 0 C2 1 2 1 2 1 Z " fill="#00AAD4" transform="translate(43,247)"/>
<path d="" fill="#006A94" transform="translate(0,0)"/>
<path d="M0 0 C2 1 2 1 2 1 Z " fill="#007FBF" transform="translate(68,246)"/>
<path d="M0 0 C2 1 2 1 2 1 Z " fill="#007FFF" transform="translate(41,246)"/>
<path d="" fill="#006AD4" transform="translate(0,0)"/>
<path d="M0 0 C2 1 2 1 2 1 Z " fill="#003FDF" transform="translate(326,244)"/>
<path d="M0 0 C2 1 2 1 2 1 Z " fill="#002A55" transform="translate(324,243)"/>
<path d="M0 0 C2 1 2 1 2 1 Z " fill="#00BFDF" transform="translate(308,243)"/>
<path d="M0 0 C2 1 2 1 2 1 Z " fill="#006A94" transform="translate(208,243)"/>
<path d="M0 0 C2 1 2 1 2 1 Z " fill="#006A94" transform="translate(191,243)"/>
<path d="M0 0 C2 1 2 1 2 1 Z " fill="#00BFBF" transform="translate(73,243)"/>
<path d="M0 0 C2 1 2 1 2 1 Z " fill="#00D4D4" transform="translate(36,243)"/>
<path d="" fill="#002AD4" transform="translate(0,0)"/>
<path d="M0 0 C2 1 2 1 2 1 Z " fill="#003FDF" transform="translate(322,242)"/>
<path d="M0 0 C2 1 2 1 2 1 Z " fill="#007F9F" transform="translate(310,242)"/>
<path d="M0 0 C2 1 2 1 2 1 Z " fill="#0055AA" transform="translate(206,242)"/>
<path d="M0 0 C2 1 2 1 2 1 Z " fill="#006AD4" transform="translate(193,242)"/>
<path d="M0 0 C2 1 2 1 2 1 Z " fill="#007FBF" transform="translate(75,242)"/>
<path d="M0 0 C2 1 2 1 2 1 Z " fill="#00BFFF" transform="translate(34,242)"/>
<path d="M0 0 C2 1 2 1 2 1 Z " fill="#002AD4" transform="translate(78,240)"/>
<path d="M0 0 C2 1 2 1 2 1 Z " fill="#002AD4" transform="translate(31,240)"/>
<path d="" fill="#009494" transform="translate(0,0)"/>
<path d="M0 0 C2 1 2 1 2 1 Z " fill="#006A94" transform="translate(80,239)"/>
<path d="M0 0 C2 1 2 1 2 1 Z " fill="#006A94" transform="translate(29,239)"/>
<path d="M0 0 C2 1 2 1 2 1 Z " fill="#00BFFF" transform="translate(82,238)"/>
<path d="M0 0 C2 1 2 1 2 1 Z " fill="#00BFBF" transform="translate(27,238)"/>
<path d="M0 0 C2 1 2 1 2 1 Z " fill="#006A94" transform="translate(83,234)"/>
<path d="M0 0 C2 1 2 1 2 1 Z " fill="#006A94" transform="translate(26,234)"/>
<path d="M0 0 C2 1 2 1 2 1 Z " fill="#002A55" transform="translate(81,233)"/>
<path d="M0 0 C2 1 2 1 2 1 Z " fill="#001F3F" transform="translate(28,233)"/>
<path d="M0 0 C2 1 2 1 2 1 Z " fill="#002A55" transform="translate(299,231)"/>
<path d="M0 0 C2 1 2 1 2 1 Z " fill="#002AD4" transform="translate(78,231)"/>
<path d="M0 0 C2 1 2 1 2 1 Z " fill="#00AAD4" transform="translate(31,231)"/>
<path d="M0 0 C2 1 2 1 2 1 Z " fill="#002AD4" transform="translate(441,230)"/>
<path d="M0 0 C2 1 2 1 2 1 Z " fill="#002AD4" transform="translate(332,230)"/>
<path d="M0 0 C2 1 2 1 2 1 Z " fill="#007F7F" transform="translate(215,230)"/>
<path d="M0 0 C2 1 2 1 2 1 Z " fill="#007FBF" transform="translate(184,230)"/>
<path d="M0 0 C2 1 2 1 2 1 Z " fill="#00AAD4" transform="translate(439,229)"/>
<path d="M0 0 C2 1 2 1 2 1 Z " fill="#007FBF" transform="translate(330,229)"/>
<path d="M0 0 C2 1 2 1 2 1 Z " fill="#002AD4" transform="translate(302,229)"/>
<path d="M0 0 C2 1 2 1 2 1 Z " fill="#002AD4" transform="translate(213,229)"/>
<path d="M0 0 C2 1 2 1 2 1 Z " fill="#00AAD4" transform="translate(186,229)"/>
<path d="" fill="#009494" transform="translate(0,0)"/>
<path d="M0 0 C2 1 2 1 2 1 Z " fill="#00BFFF" transform="translate(75,229)"/>
<path d="M0 0 C2 1 2 1 2 1 Z " fill="#00BFBF" transform="translate(34,229)"/>
<path d="" fill="#006AD4" transform="translate(0,0)"/>
<path d="M0 0 C2 1 2 1 2 1 Z " fill="#003F5F" transform="translate(463,228)"/>
<path d="M0 0 C2 1 2 1 2 1 Z " fill="#006A94" transform="translate(437,228)"/>
<path d="M0 0 C2 1 2 1 2 1 Z " fill="#006A94" transform="translate(328,228)"/>
<path d="M0 0 C2 1 2 1 2 1 Z " fill="#003F5F" transform="translate(304,228)"/>
<path d="M0 0 C2 1 2 1 2 1 Z " fill="#006A94" transform="translate(188,228)"/>
<path d="M0 0 C2 1 2 1 2 1 Z " fill="#00BFFF" transform="translate(72,227)"/>
<path d="M0 0 C2 1 2 1 2 1 Z " fill="#002AD4" transform="translate(70,226)"/>
<path d="M0 0 C2 1 2 1 2 1 Z " fill="#0055D4" transform="translate(39,226)"/>
<path d="M0 0 C2 1 2 1 2 1 Z " fill="#007FFF" transform="translate(67,224)"/>
<path d="M0 0 C2 1 2 1 2 1 Z " fill="#007FBF" transform="translate(42,224)"/>
<path d="M0 0 C2 1 2 1 2 1 Z " fill="#002AFF" transform="translate(65,223)"/>
<path d="M0 0 C2 1 2 1 2 1 Z " fill="#003FDF" transform="translate(44,223)"/>
<path d="" fill="#007FFF" transform="translate(0,0)"/>
<path d="M0 0 C2 1 2 1 2 1 Z " fill="#006A94" transform="translate(62,221)"/>
<path d="M0 0 C2 1 2 1 2 1 Z " fill="#006A94" transform="translate(47,221)"/>
<path d="M0 0 C2 1 2 1 2 1 Z " fill="#001FBF" transform="translate(60,220)"/>
<path d="M0 0 C2 1 2 1 2 1 Z " fill="#003F3F" transform="translate(49,220)"/>
<path d="M0 0 C2 1 2 1 2 1 Z " fill="#007FBF" transform="translate(57,218)"/>
<path d="M0 0 C2 1 2 1 2 1 Z " fill="#007FBF" transform="translate(52,218)"/>
<path d="M0 0 C2 1 2 1 2 1 Z " fill="#002A55" transform="translate(87,203)"/>
<path d="M0 0 C2 1 2 1 2 1 Z " fill="#003FFF" transform="translate(22,203)"/>
<path d="M0 0 C2 1 2 1 2 1 Z " fill="#0055D4" transform="translate(84,201)"/>
<path d="M0 0 C2 1 2 1 2 1 Z " fill="#00AAD4" transform="translate(25,201)"/>
<path d="M0 0 C2 1 2 1 2 1 Z " fill="#007FBF" transform="translate(82,200)"/>
<path d="M0 0 C2 1 2 1 2 1 Z " fill="#007FBF" transform="translate(27,200)"/>
<path d="M0 0 C2 1 2 1 2 1 Z " fill="#007FFF" transform="translate(76,197)"/>
<path d="M0 0 C2 1 2 1 2 1 Z " fill="#006AD4" transform="translate(33,197)"/>
<path d="M0 0 C2 1 2 1 2 1 Z " fill="#003FDF" transform="translate(35,196)"/>
<path d="" fill="#007FFF" transform="translate(0,0)"/>
<path d="" fill="#007FFF" transform="translate(0,0)"/>
<path d="" fill="#0055AA" transform="translate(0,0)"/>
<path d="" fill="#007F7F" transform="translate(0,0)"/>
<path d="" fill="#00AAAA" transform="translate(0,0)"/>
<path d="" fill="#00AAFF" transform="translate(0,0)"/>
<path d="" fill="#00AAAA" transform="translate(0,0)"/>
<path d="" fill="#0055AA" transform="translate(0,0)"/>
<path d="" fill="#0000FF" transform="translate(0,0)"/>
<path d="" fill="#00FFFF" transform="translate(0,0)"/>
<path d="" fill="#00AAAA" transform="translate(0,0)"/>
<path d="" fill="#00AAAA" transform="translate(0,0)"/>
<path d="" fill="#007FBF" transform="translate(0,0)"/>
<path d="" fill="#00AAAA" transform="translate(0,0)"/>
<path d="" fill="#007FFF" transform="translate(0,0)"/>
<path d="" fill="#007FFF" transform="translate(0,0)"/>
<path d="" fill="#0055AA" transform="translate(0,0)"/>
<path d="" fill="#000000" transform="translate(0,0)"/>
<path d="" fill="#0055AA" transform="translate(0,0)"/>
<path d="" fill="#0055AA" transform="translate(0,0)"/>
<path d="" fill="#0055AA" transform="translate(0,0)"/>
<path d="" fill="#007F7F" transform="translate(0,0)"/>
<path d="" fill="#007F7F" transform="translate(0,0)"/>
<path d="" fill="#00FFFF" transform="translate(0,0)"/>
<path d="" fill="#00AAAA" transform="translate(0,0)"/>
<path d="" fill="#0055AA" transform="translate(0,0)"/>
<path d="" fill="#007F7F" transform="translate(0,0)"/>
<path d="" fill="#0055AA" transform="translate(0,0)"/>
<path d="" fill="#007FFF" transform="translate(0,0)"/>
<path d="" fill="#007FFF" transform="translate(0,0)"/>
<path d="" fill="#0055AA" transform="translate(0,0)"/>
<path d="" fill="#0055AA" transform="translate(0,0)"/>
<path d="" fill="#0055FF" transform="translate(0,0)"/>
<path d="" fill="#0055AA" transform="translate(0,0)"/>
<path d="" fill="#0055AA" transform="translate(0,0)"/>
<path d="" fill="#0055AA" transform="translate(0,0)"/>
<path d="" fill="#007FFF" transform="translate(0,0)"/>
<path d="" fill="#007FBF" transform="translate(0,0)"/>
<path d="" fill="#007FBF" transform="translate(0,0)"/>
<path d="" fill="#007FFF" transform="translate(0,0)"/>
<path d="" fill="#0055AA" transform="translate(0,0)"/>
<path d="" fill="#0055AA" transform="translate(0,0)"/>
<path d="" fill="#0055AA" transform="translate(0,0)"/>
<path d="" fill="#007FFF" transform="translate(0,0)"/>
<path d="" fill="#0055AA" transform="translate(0,0)"/>
<path d="" fill="#0055FF" transform="translate(0,0)"/>
<path d="" fill="#0055AA" transform="translate(0,0)"/>
<path d="" fill="#007F7F" transform="translate(0,0)"/>
<path d="" fill="#00AAFF" transform="translate(0,0)"/>
<path d="" fill="#00AAFF" transform="translate(0,0)"/>
<path d="" fill="#00AAAA" transform="translate(0,0)"/>
<path d="" fill="#0055AA" transform="translate(0,0)"/>
<path d="" fill="#0055AA" transform="translate(0,0)"/>
<path d="" fill="#00AAAA" transform="translate(0,0)"/>
<path d="" fill="#0055AA" transform="translate(0,0)"/>
<path d="" fill="#0055AA" transform="translate(0,0)"/>
<path d="" fill="#007FFF" transform="translate(0,0)"/>
<path d="" fill="#007F7F" transform="translate(0,0)"/>
<path d="" fill="#005555" transform="translate(0,0)"/>
<path d="" fill="#0055AA" transform="translate(0,0)"/>
<path d="" fill="#00AAAA" transform="translate(0,0)"/>
<path d="" fill="#00AAAA" transform="translate(0,0)"/>
<path d="" fill="#0055AA" transform="translate(0,0)"/>
<path d="" fill="#007FBF" transform="translate(0,0)"/>
<path d="" fill="#0055AA" transform="translate(0,0)"/>
<path d="" fill="#0055AA" transform="translate(0,0)"/>
<path d="" fill="#007FFF" transform="translate(0,0)"/>
<path d="" fill="#0055AA" transform="translate(0,0)"/>
<path d="" fill="#007F7F" transform="translate(0,0)"/>
<path d="" fill="#007FFF" transform="translate(0,0)"/>
<path d="" fill="#007F7F" transform="translate(0,0)"/>
<path d="" fill="#0055AA" transform="translate(0,0)"/>
<path d="" fill="#0055AA" transform="translate(0,0)"/>
<path d="" fill="#0055AA" transform="translate(0,0)"/>
<path d="" fill="#0055FF" transform="translate(0,0)"/>
<path d="" fill="#0055AA" transform="translate(0,0)"/>
<path d="" fill="#0055AA" transform="translate(0,0)"/>
<path d="" fill="#007FFF" transform="translate(0,0)"/>
<path d="" fill="#0055AA" transform="translate(0,0)"/>
<path d="" fill="#007FFF" transform="translate(0,0)"/>
<path d="" fill="#0055AA" transform="translate(0,0)"/>
<path d="" fill="#000000" transform="translate(0,0)"/>
<path d="" fill="#005555" transform="translate(0,0)"/>
<path d="" fill="#007F7F" transform="translate(0,0)"/>
<path d="" fill="#0055AA" transform="translate(0,0)"/>
<path d="" fill="#0055AA" transform="translate(0,0)"/>
<path d="" fill="#003F7F" transform="translate(0,0)"/>
<path d="" fill="#0055AA" transform="translate(0,0)"/>
<path d="" fill="#007F7F" transform="translate(0,0)"/>
<path d="" fill="#0055AA" transform="translate(0,0)"/>
<path d="" fill="#0055AA" transform="translate(0,0)"/>
<path d="" fill="#0055AA" transform="translate(0,0)"/>
<path d="" fill="#0055AA" transform="translate(0,0)"/>
<path d="" fill="#003FBF" transform="translate(0,0)"/>
<path d="" fill="#007FBF" transform="translate(0,0)"/>
<path d="" fill="#00AAAA" transform="translate(0,0)"/>
<path d="" fill="#007F7F" transform="translate(0,0)"/>
<path d="" fill="#00AAAA" transform="translate(0,0)"/>
<path d="" fill="#0055AA" transform="translate(0,0)"/>
<path d="" fill="#0055AA" transform="translate(0,0)"/>
<path d="" fill="#0055AA" transform="translate(0,0)"/>
<path d="" fill="#0055AA" transform="translate(0,0)"/>
<path d="" fill="#00AAFF" transform="translate(0,0)"/>
<path d="" fill="#0055AA" transform="translate(0,0)"/>
<path d="" fill="#0055AA" transform="translate(0,0)"/>
<path d="" fill="#0055AA" transform="translate(0,0)"/>
<path d="" fill="#0055AA" transform="translate(0,0)"/>
<path d="" fill="#00AAAA" transform="translate(0,0)"/>
<path d="" fill="#0055AA" transform="translate(0,0)"/>
<path d="" fill="#007FFF" transform="translate(0,0)"/>
<path d="" fill="#0055AA" transform="translate(0,0)"/>
<path d="" fill="#007FFF" transform="translate(0,0)"/>
<path d="" fill="#00AAAA" transform="translate(0,0)"/>
<path d="" fill="#0055AA" transform="translate(0,0)"/>
<path d="" fill="#0055AA" transform="translate(0,0)"/>
<path d="" fill="#007F7F" transform="translate(0,0)"/>
<path d="" fill="#007F7F" transform="translate(0,0)"/>
<path d="" fill="#0055AA" transform="translate(0,0)"/>
<path d="" fill="#007FFF" transform="translate(0,0)"/>
<path d="" fill="#0055AA" transform="translate(0,0)"/>
<path d="" fill="#0055AA" transform="translate(0,0)"/>
<path d="" fill="#007F7F" transform="translate(0,0)"/>
<path d="" fill="#007F7F" transform="translate(0,0)"/>
<path d="" fill="#007FFF" transform="translate(0,0)"/>
<path d="" fill="#007F7F" transform="translate(0,0)"/>
<path d="" fill="#007F7F" transform="translate(0,0)"/>
<path d="" fill="#00AAAA" transform="translate(0,0)"/>
<path d="" fill="#00AAAA" transform="translate(0,0)"/>
<path d="" fill="#007FFF" transform="translate(0,0)"/>
<path d="" fill="#0055AA" transform="translate(0,0)"/>
<path d="" fill="#0055AA" transform="translate(0,0)"/>
<path d="" fill="#0055AA" transform="translate(0,0)"/>
<path d="" fill="#0055AA" transform="translate(0,0)"/>
<path d="" fill="#00FFFF" transform="translate(0,0)"/>
<path d="" fill="#00AAAA" transform="translate(0,0)"/>
<path d="" fill="#00AAAA" transform="translate(0,0)"/>
<path d="" fill="#0055AA" transform="translate(0,0)"/>
<path d="" fill="#0055AA" transform="translate(0,0)"/>
<path d="" fill="#0055AA" transform="translate(0,0)"/>
<path d="" fill="#0055AA" transform="translate(0,0)"/>
<path d="" fill="#007FFF" transform="translate(0,0)"/>
<path d="" fill="#0055AA" transform="translate(0,0)"/>
<path d="" fill="#00AAAA" transform="translate(0,0)"/>
<path d="" fill="#00AAAA" transform="translate(0,0)"/>
<path d="" fill="#0055AA" transform="translate(0,0)"/>
<path d="" fill="#007FFF" transform="translate(0,0)"/>
<path d="" fill="#00AAAA" transform="translate(0,0)"/>
<path d="" fill="#007FBF" transform="translate(0,0)"/>
<path d="" fill="#007F7F" transform="translate(0,0)"/>
<path d="" fill="#007F7F" transform="translate(0,0)"/>
<path d="" fill="#0055AA" transform="translate(0,0)"/>
<path d="" fill="#0055AA" transform="translate(0,0)"/>
<path d="" fill="#0055AA" transform="translate(0,0)"/>
<path d="" fill="#0055AA" transform="translate(0,0)"/>
</svg>
